<svg width="37" height="42" viewBox="0 0 37 42" fill="none" xmlns="http://www.w3.org/2000/svg">
<path d="M35.2285 16.935C40.1451 22.9085 32.6441 28.767 28.279 30.9496C29.4285 25.0706 25.2375 21.3939 23.0966 18.9044C21.3838 16.9128 15.5383 12.1707 12.8297 10.0486L10.0706 7.86359L7.04429 5.02744C3.93962 1.56996 6.68907 1.23313 8.45189 1.49689C21.9015 3.77525 31.907 12.7383 35.2285 16.935Z" fill="#508D4E"/>
<path d="M6.12284 7.61815C2.72022 4.85474 3.35247 2.04027 4.09393 0.978455C2.56449 1.2937 1.56609 2.38115 1.25807 2.88547C-0.389525 5.60933 4.1063 11.9794 6.56016 14.8239L9.10757 18.5274C16.3236 32.5666 12.583 38.6411 9.81069 39.9235L10.9595 39.5767C14.2902 38.6265 18.8175 36.4916 20.6649 35.5429C31.5601 30.9275 19.8026 19.0408 12.5619 13.6744L6.12284 7.61815Z" fill="#1A5319"/>
<path d="M4.84632 29.9013C9.63751 24.8874 9.72097 20.1677 9.16379 18.4345C16.332 31.9904 12.6765 38.4743 9.95273 40.0218C0.85358 43.7822 -1.14266 36.1686 4.84632 29.9013Z" fill="#508D4E"/>
</svg>
